<!-- icon666.com - MILLIONS vector ICONS FREE --><svg id="Icon" viewBox="0 0 64 64" xmlns="http://www.w3.org/2000/svg"><g><circle cx="24.355" cy="24.355" fill="#ffcb29" r="21.353" style="fill: rgb(0, 0, 0);"></circle><path d="m5.002 26.355c0-11.793 9.56-21.353 21.353-21.353 5.387 0 10.294 2.01 14.051 5.302-3.914-4.467-9.645-7.302-16.051-7.302-11.793 0-21.353 9.56-21.353 21.353 0 6.406 2.835 12.137 7.302 16.051-3.292-3.757-5.302-8.664-5.302-14.051z" fill="#fcb316" style="fill: rgb(0, 0, 0);"></path><circle cx="24.355" cy="24.355" fill="#fff7e2" r="15.252" style="fill: rgb(255, 255, 255);"></circle><path d="m11.103 26.355c0-8.41 6.842-15.252 15.252-15.252 3.697 0 7.09 1.324 9.732 3.52-2.8-3.37-7.019-5.52-11.732-5.52-8.411 0-15.252 6.842-15.252 15.252 0 4.713 2.15 8.932 5.52 11.732-2.196-2.643-3.52-6.035-3.52-9.732z" fill="#ffecb2" style="fill: rgb(168, 168, 168);"></path><path d="m51.061 59.296-10.325-10.325 8.235-8.236 10.326 10.326c2.274 2.274 2.274 5.961 0 8.235-2.274 2.274-5.961 2.274-8.236 0z" fill="#3d82c4" style="fill: rgb(0, 0, 0);"></path><path d="m54.061 59.296-3.59-3.59c-3.72-3.72-3.72-9.751 0-13.471l-1.5-1.5-8.235 8.236 10.325 10.325c1.523 1.523 3.676 2.002 5.618 1.484-.957-.255-1.867-.733-2.618-1.484z" fill="#3374ba" style="fill: rgb(196, 196, 196);"></path><path d="m41.37 37.252c-1.179 1.553-2.565 2.939-4.118 4.118l5.542 5.542 4.117-4.118-5.541-5.541z" fill="#57a0d7" style="fill: rgb(184, 184, 184);"></path><path d="m43.37 39.252 3.541 3.541-5.541-5.541c-1.179 1.553-2.565 2.939-4.118 4.118l2 2c1.553-1.179 2.939-2.565 4.118-4.118z" fill="#3d82c4" style="fill: rgb(0, 0, 0);"></path></g><g><path d="m24.355 8.103c-8.962 0-16.253 7.291-16.253 16.252s7.291 16.252 16.253 16.252 16.252-7.291 16.252-16.252-7.291-16.252-16.252-16.252zm0 30.504c-7.859 0-14.253-6.394-14.253-14.252s6.394-14.252 14.253-14.252 14.252 6.394 14.252 14.252-6.394 14.252-14.252 14.252z" fill="#000000"></path><path d="m60.003 50.354-10.325-10.326c-.375-.375-1.039-.375-1.414 0l-1.351 1.351-4.239-4.238c2.539-3.626 4.034-8.034 4.034-12.786 0-12.326-10.027-22.353-22.353-22.353s-22.353 10.027-22.353 22.353 10.027 22.353 22.354 22.353c4.753 0 9.16-1.496 12.786-4.034l4.238 4.238-1.352 1.352c-.391.391-.391 1.023 0 1.414l10.325 10.325c2.66 2.661 6.99 2.66 9.65 0 2.66-2.661 2.659-6.989 0-9.649zm-56.001-25.999c0-11.223 9.131-20.353 20.353-20.353s20.353 9.13 20.353 20.353-9.13 20.353-20.353 20.353-20.353-9.131-20.353-20.353zm34.739 17.09c.976-.823 1.881-1.728 2.704-2.704l4.053 4.053-2.704 2.704zm19.848 17.144c-1.881 1.881-4.941 1.88-6.822 0l-9.618-9.618 6.821-6.822 9.618 9.619c1.881 1.88 1.881 4.94 0 6.821z" fill="#000000"></path></g></svg>