<!-- icon666.com - MILLIONS vector ICONS FREE --><svg viewBox="0 0 62 61" xmlns="http://www.w3.org/2000/svg"><g id="Page-1" fill="none" fill-rule="evenodd"><g id="026---Magnifying-Glass"><g id="Icons" transform="translate(1 2)"><path id="Path" d="m45 22c.0052076 4.4023187-1.3116556 8.7047685-3.78 12.35-1.5160103 2.2191211-3.419814 4.1466377-5.62 5.69-8.3068417 5.8036935-19.5034608 5.1825795-27.1174089-1.5042935-7.6139481-6.686873-9.67546813-17.7095858-4.99285373-26.6962203 4.6826144-8.98663443 14.89795323-13.61231434 24.74081843-11.20306514 9.8428651 2.4092492 16.7668703 11.23014564 16.7694442 21.36357894z" fill="#02a9f4" style="fill: rgb(18, 17, 17);"></path><path id="Path" d="m23 0c-.5 0-1 .023-1.5.057 7.8551279.54040696 14.8233321 5.23551467 18.2739636 12.3128176 3.4506314 7.0773029 2.8580761 15.4587577-1.5539636 21.9801824-1.5160103 2.2191211-3.419814 4.1466377-5.62 5.69-3.2777596 2.2929689-7.122152 3.6419999-11.114 3.9.5.034 1 .058 1.514.058 4.5076918.0097473 8.9083311-1.3733108 12.6-3.96 2.200186-1.5433623 4.1039897-3.4708789 5.62-5.69 4.5614178-6.7447225 5.0276131-15.4563595 1.2120601-22.6493679-3.8155529-7.19300837-11.2897153-11.69265872-19.4320601-11.6986321z" fill="#0377bc" style="fill: rgb(255, 255, 255);"></path><path id="Path" d="m44.9 39.44-4.24 4.25c-.3930079.3899779-1.0269921.3899779-1.42 0l-3.64-3.65c2.200186-1.5433623 4.1039897-3.4708789 5.62-5.69l3.68 3.68c.3877236.3900375.3877236 1.0199625 0 1.41z" fill="#02a9f4" style="fill: rgb(18, 17, 17);"></path><path id="Path" d="m44.9 38.03-3.68-3.68c-.4.59-.839 1.157-1.3 1.7l1.98 1.98c.3877236.3900375.3877236 1.0199625 0 1.41l-3.45 3.46.79.792c.3930079.3899779 1.0269921.3899779 1.42 0l4.24-4.25c.3890509-.3902698.3890509-1.0217302 0-1.412z" fill="#0377bc" style="fill: rgb(255, 255, 255);"></path><path id="Path" d="m58.33 57.12c-.5617198.5632738-1.3245087.8798486-2.12.8798486s-1.5582802-.3165748-2.12-.8798486l-13.43-13.43 4.24-4.25 13.43 13.44c.5662452.5601348.8848772 1.3235173.8848772 2.12s-.318632 1.5598652-.8848772 2.12z" fill="#91562d" style="fill: rgb(0, 0, 0);"></path><path id="Path" d="m58.33 52.88-13.43-13.44-1.5 1.5 11.93 11.94c.5662452.5601348.8848772 1.3235173.8848772 2.12s-.318632 1.5598652-.8848772 2.12c-.1866341.1789197-.394918.3337889-.62.461.4539991.270208.9716914.4148167 1.5.419.79501-.0025539 1.5568801-.3188018 2.12-.88.5662452-.5601348.8848772-1.3235173.8848772-2.12s-.318632-1.5598652-.8848772-2.12z" fill="#6d4122" style="fill: rgb(255, 255, 255);"></path><circle id="Oval" cx="23" cy="22" fill="#f5f5f5" r="18" style="fill: rgb(255, 255, 255);"></circle><path id="Path" d="m23 4c-.506 0-1 .035-1.5.076 9.3272756.77016973 16.5049834 8.5649813 16.5049834 17.924s-7.1777078 17.1538303-16.5049834 17.924c.5.041.994.076 1.5.076 9.9411255 0 18-8.0588745 18-18s-8.0588745-18-18-18z" fill="#cfd8dc" style="fill: rgb(126, 135, 139);"></path></g><g id="Icons_copy" fill="#000"><path id="Shape" d="m47.116 41.247c.186245-.6862116-.0077901-1.4196566-.509-1.924l-3.123-3.123c6.2412629-9.9550624 3.9903447-23.0120626-5.2239364-30.30271789-9.2142811-7.29065527-22.4389649-6.47848222-30.6918784 1.8848932-8.25291352 8.36337539-8.88919226 21.59768829-1.47667723 30.71422549s20.49828723 11.1936633 30.36949203 4.8205992l3.071 3.083c.3753356.3770219.8860056.5880604 1.418.586.1741433-.002307.3472526-.027181.515-.074l12.92 12.92c1.5668606 1.5324486 4.0751404 1.5186351 5.6250275-.0309781 1.5498871-1.5496131 1.5641441-4.0578904.0319725-5.6250219zm-44.116-17.247c0-11.5979797 9.4020203-21 21-21s21 9.4020203 21 21-9.4020203 21-21 21c-11.592497-.0132259-20.98677409-9.407503-21-21zm37.948 20.984-2.835-2.843c1.5845846-1.2340203 3.0021168-2.668696 4.217-4.268l2.862 2.861zm17.68 13.43c-.375096.375248-.8839266.5860729-1.4145.5860729s-1.039404-.2108249-1.4145-.5860729l-12.725-12.725 2.826-2.832 12.728 12.729c.7807639.7809997.7807639 2.0470003 0 2.828z" fill-rule="nonzero" fill="#000" style="fill: rgb(0, 0, 0);"></path><path id="Path" d="m25 23.583v-12.583c0-.5522847-.4477153-1-1-1s-1 .4477153-1 1v13c.0000566.2651948.1054506.5195073.293.707l8 8c.3967975.3522609.9996387.3332869 1.3734984-.0432299s.3885639-.9794773.0335016-1.3737701z" fill="#000" style="fill: rgb(0, 0, 0);"></path><path id="Shape" d="m24 5c-10.4934102 0-19 8.5065898-19 19s8.5065898 19 19 19 19-8.5065898 19-19c-.0115735-10.4886126-8.5113874-18.9884265-19-19zm0 36c-9.3888407 0-17-7.6111593-17-17s7.6111593-17 17-17 17 7.6111593 17 17c-.010471 9.3845001-7.6154999 16.989529-17 17z" fill-rule="nonzero" fill="#000" style="fill: rgb(0, 0, 0);"></path></g></g></g></svg>