<!-- icon666.com - MILLIONS vector ICONS FREE --><svg id="Layer_1" viewBox="0 0 32 32" xmlns="http://www.w3.org/2000/svg" data-name="Layer 1"><path d="m11.73 14.93a1.07 1.07 0 0 1 -1.07-1.07v-3.2a1.07 1.07 0 1 1 2.13 0v3.2a1.07 1.07 0 0 1 -1.06 1.07z" fill="#000000" style="fill: rgb(255, 255, 255);"></path><path d="m16 14.93a1.07 1.07 0 0 1 -1.07-1.07v-4.26a1.07 1.07 0 0 1 2.13 0v4.27a1.07 1.07 0 0 1 -1.06 1.06z" fill="#000000" style="fill: rgb(255, 255, 255);"></path><path d="m20.27 14.93a1.07 1.07 0 0 1 -1.07-1.07v-6.39a1.07 1.07 0 1 1 2.13 0v6.4a1.07 1.07 0 0 1 -1.06 1.06z" fill="#000000" style="fill: rgb(255, 255, 255);"></path><path d="m24.53 32h-17.06a4.27 4.27 0 0 1 -4.27-4.27v-19.33a5.32 5.32 0 0 1 1.92-4.1l3.68-3.06a5.35 5.35 0 0 1 3.41-1.24h12.32a4.27 4.27 0 0 1 4.27 4.27v23.46a4.27 4.27 0 0 1 -4.27 4.27zm-12.32-29.87a3.21 3.21 0 0 0 -2 .74l-3.73 3.07a3.19 3.19 0 0 0 -1.15 2.46v19.33a2.14 2.14 0 0 0 2.13 2.13h17.07a2.14 2.14 0 0 0 2.13-2.13v-23.46a2.14 2.14 0 0 0 -2.13-2.13z" fill="#000000" style="fill: rgb(255, 255, 255);"></path><path d="m22.4 25.6h-12.8a1.07 1.07 0 1 1 0-2.13h12.8a1.07 1.07 0 1 1 0 2.13z" fill="#000000" style="fill: rgb(255, 255, 255);"></path><path d="m22.4 20.27h-12.8a1.07 1.07 0 0 1 0-2.13h12.8a1.07 1.07 0 1 1 0 2.13z" fill="#000000" style="fill: rgb(255, 255, 255);"></path></svg>